<mxfile host="Electron" agent="Mozilla/5.0 (Windows NT 10.0; Win64; x64) AppleWebKit/537.36 (KHTML, like Gecko) draw.io/24.7.8 Chrome/128.0.6613.36 Electron/32.0.1 Safari/537.36" version="24.7.8">
  <diagram name="Page-1" id="Cf96VfZsJOUyNksSCbDR">
    <mxGraphModel dx="989" dy="659" grid="1" gridSize="10" guides="1" tooltips="1" connect="1" arrows="1" fold="1" page="1" pageScale="1" pageWidth="850" pageHeight="1100" math="0" shadow="0">
      <root>
        <mxCell id="0" />
        <mxCell id="1" parent="0" />
        <mxCell id="gZAkS-AGusxoyFhxjlCA-1" value="Prisma Cloud&lt;br style=&quot;font-size: 14px;&quot;&gt;&lt;br style=&quot;font-size: 14px;&quot;&gt;Enterprise Edition" style="ellipse;shape=cloud;whiteSpace=wrap;html=1;fontFamily=Gloria Hallelujah;fontSource=https%3A%2F%2Ffonts.googleapis.com%2Fcss%3Ffamily%3DGloria%2BHallelujah;sketch=1;curveFitting=1;jiggle=2;fontSize=14;" vertex="1" parent="1">
          <mxGeometry x="300" y="140" width="195" height="130" as="geometry" />
        </mxCell>
        <mxCell id="gZAkS-AGusxoyFhxjlCA-2" value="Public&lt;div style=&quot;font-size: 14px;&quot;&gt;Cloud&lt;/div&gt;&lt;div style=&quot;font-size: 14px;&quot;&gt;(CSPM)&lt;/div&gt;" style="ellipse;shape=cloud;whiteSpace=wrap;html=1;fontFamily=Gloria Hallelujah;fontSource=https%3A%2F%2Ffonts.googleapis.com%2Fcss%3Ffamily%3DGloria%2BHallelujah;sketch=1;curveFitting=1;jiggle=2;fontSize=14;" vertex="1" parent="1">
          <mxGeometry x="90" y="290" width="195" height="130" as="geometry" />
        </mxCell>
        <mxCell id="gZAkS-AGusxoyFhxjlCA-3" style="edgeStyle=orthogonalEdgeStyle;rounded=0;orthogonalLoop=1;jettySize=auto;html=1;exitX=0.16;exitY=0.55;exitDx=0;exitDy=0;exitPerimeter=0;fontFamily=Gloria Hallelujah;fontSource=https%3A%2F%2Ffonts.googleapis.com%2Fcss%3Ffamily%3DGloria%2BHallelujah;fontSize=14;fontColor=default;curved=1;flowAnimation=1;strokeColor=#FFFFFF;strokeWidth=2;dashed=1;dashPattern=1 1;" edge="1" parent="1" source="gZAkS-AGusxoyFhxjlCA-1" target="gZAkS-AGusxoyFhxjlCA-2">
          <mxGeometry relative="1" as="geometry" />
        </mxCell>
        <mxCell id="gZAkS-AGusxoyFhxjlCA-24" style="edgeStyle=orthogonalEdgeStyle;shape=connector;curved=1;rounded=0;orthogonalLoop=1;jettySize=auto;html=1;dashed=1;dashPattern=1 1;strokeColor=#FFFF00;strokeWidth=2;align=center;verticalAlign=middle;fontFamily=Gloria Hallelujah;fontSource=https%3A%2F%2Ffonts.googleapis.com%2Fcss%3Ffamily%3DGloria%2BHallelujah;fontSize=14;fontColor=default;labelBackgroundColor=default;endArrow=classic;flowAnimation=1;exitX=1;exitY=0.5;exitDx=0;exitDy=0;exitPerimeter=0;" edge="1" parent="1" source="gZAkS-AGusxoyFhxjlCA-4" target="gZAkS-AGusxoyFhxjlCA-23">
          <mxGeometry relative="1" as="geometry" />
        </mxCell>
        <mxCell id="gZAkS-AGusxoyFhxjlCA-4" value="Self Host" style="shape=cylinder3;whiteSpace=wrap;html=1;boundedLbl=1;backgroundOutline=1;size=15;sketch=1;jiggle=2;curveFitting=1;strokeColor=default;align=center;verticalAlign=middle;fontFamily=Gloria Hallelujah;fontSource=https%3A%2F%2Ffonts.googleapis.com%2Fcss%3Ffamily%3DGloria%2BHallelujah;fontSize=14;fontColor=default;fillColor=default;fontStyle=1" vertex="1" parent="1">
          <mxGeometry x="610" y="165" width="75" height="80" as="geometry" />
        </mxCell>
        <mxCell id="gZAkS-AGusxoyFhxjlCA-6" value="Prisma Cloud --&amp;gt; VCS" style="text;html=1;align=center;verticalAlign=middle;whiteSpace=wrap;rounded=0;fontFamily=Gloria Hallelujah;fontSource=https%3A%2F%2Ffonts.googleapis.com%2Fcss%3Ffamily%3DGloria%2BHallelujah;fontSize=14;fontColor=default;" vertex="1" parent="1">
          <mxGeometry x="815" y="100" width="150" height="30" as="geometry" />
        </mxCell>
        <mxCell id="gZAkS-AGusxoyFhxjlCA-7" value="Features" style="swimlane;fontStyle=0;childLayout=stackLayout;horizontal=1;startSize=30;horizontalStack=0;resizeParent=1;resizeParentMax=0;resizeLast=0;collapsible=1;marginBottom=0;whiteSpace=wrap;html=1;sketch=1;jiggle=2;curveFitting=1;strokeColor=default;align=center;verticalAlign=middle;fontFamily=Gloria Hallelujah;fontSource=https%3A%2F%2Ffonts.googleapis.com%2Fcss%3Ffamily%3DGloria%2BHallelujah;fontSize=14;fontColor=default;fillColor=default;" vertex="1" parent="1">
          <mxGeometry x="802.5" y="132.5" width="140" height="120" as="geometry" />
        </mxCell>
        <mxCell id="gZAkS-AGusxoyFhxjlCA-10" value="BOT" style="text;strokeColor=none;fillColor=none;align=left;verticalAlign=middle;spacingLeft=4;spacingRight=4;overflow=hidden;points=[[0,0.5],[1,0.5]];portConstraint=eastwest;rotatable=0;whiteSpace=wrap;html=1;fontFamily=Gloria Hallelujah;fontSource=https%3A%2F%2Ffonts.googleapis.com%2Fcss%3Ffamily%3DGloria%2BHallelujah;fontSize=14;fontColor=default;" vertex="1" parent="gZAkS-AGusxoyFhxjlCA-7">
          <mxGeometry y="30" width="140" height="30" as="geometry" />
        </mxCell>
        <mxCell id="gZAkS-AGusxoyFhxjlCA-8" value="Schedule Scanning" style="text;strokeColor=none;fillColor=none;align=left;verticalAlign=middle;spacingLeft=4;spacingRight=4;overflow=hidden;points=[[0,0.5],[1,0.5]];portConstraint=eastwest;rotatable=0;whiteSpace=wrap;html=1;fontFamily=Gloria Hallelujah;fontSource=https%3A%2F%2Ffonts.googleapis.com%2Fcss%3Ffamily%3DGloria%2BHallelujah;fontSize=14;fontColor=default;" vertex="1" parent="gZAkS-AGusxoyFhxjlCA-7">
          <mxGeometry y="60" width="140" height="30" as="geometry" />
        </mxCell>
        <mxCell id="gZAkS-AGusxoyFhxjlCA-9" value="PR Scanning" style="text;strokeColor=none;fillColor=none;align=left;verticalAlign=middle;spacingLeft=4;spacingRight=4;overflow=hidden;points=[[0,0.5],[1,0.5]];portConstraint=eastwest;rotatable=0;whiteSpace=wrap;html=1;fontFamily=Gloria Hallelujah;fontSource=https%3A%2F%2Ffonts.googleapis.com%2Fcss%3Ffamily%3DGloria%2BHallelujah;fontSize=14;fontColor=default;" vertex="1" parent="gZAkS-AGusxoyFhxjlCA-7">
          <mxGeometry y="90" width="140" height="30" as="geometry" />
        </mxCell>
        <mxCell id="gZAkS-AGusxoyFhxjlCA-11" value="SaaS Git" style="ellipse;shape=cloud;whiteSpace=wrap;html=1;sketch=1;jiggle=2;curveFitting=1;strokeColor=#666666;align=center;verticalAlign=middle;fontFamily=Gloria Hallelujah;fontSource=https%3A%2F%2Ffonts.googleapis.com%2Fcss%3Ffamily%3DGloria%2BHallelujah;fontSize=14;fillColor=#f5f5f5;gradientColor=#b3b3b3;fontColor=#000000;fontStyle=1" vertex="1" parent="1">
          <mxGeometry x="582.5" y="70" width="120" height="80" as="geometry" />
        </mxCell>
        <mxCell id="gZAkS-AGusxoyFhxjlCA-12" style="edgeStyle=orthogonalEdgeStyle;shape=connector;curved=1;rounded=0;orthogonalLoop=1;jettySize=auto;html=1;exitX=0.88;exitY=0.25;exitDx=0;exitDy=0;exitPerimeter=0;entryX=0.16;entryY=0.55;entryDx=0;entryDy=0;entryPerimeter=0;dashed=1;dashPattern=1 1;strokeColor=#FF00FF;strokeWidth=2;align=center;verticalAlign=middle;fontFamily=Gloria Hallelujah;fontSource=https%3A%2F%2Ffonts.googleapis.com%2Fcss%3Ffamily%3DGloria%2BHallelujah;fontSize=14;fontColor=default;labelBackgroundColor=default;endArrow=classic;flowAnimation=1;" edge="1" parent="1" source="gZAkS-AGusxoyFhxjlCA-1" target="gZAkS-AGusxoyFhxjlCA-11">
          <mxGeometry relative="1" as="geometry" />
        </mxCell>
        <mxCell id="gZAkS-AGusxoyFhxjlCA-13" value="&#xa;&lt;span style=&quot;font-size: 14px; font-style: normal; font-variant-ligatures: normal; font-variant-caps: normal; font-weight: 400; letter-spacing: normal; orphans: 2; text-align: start; text-indent: 0px; text-transform: none; widows: 2; word-spacing: 0px; -webkit-text-stroke-width: 0px; white-space: normal; text-decoration-thickness: initial; text-decoration-style: initial; text-decoration-color: initial; float: none; display: inline !important;&quot;&gt;54.251.48.202, 3.0.37.2&lt;/span&gt;&#xa;&#xa;" style="text;html=1;align=center;verticalAlign=middle;whiteSpace=wrap;rounded=0;fontFamily=Gloria Hallelujah;fontSource=https%3A%2F%2Ffonts.googleapis.com%2Fcss%3Ffamily%3DGloria%2BHallelujah;fontSize=14;fontColor=default;labelBackgroundColor=none;" vertex="1" parent="1">
          <mxGeometry x="420" y="130" width="60" height="30" as="geometry" />
        </mxCell>
        <mxCell id="gZAkS-AGusxoyFhxjlCA-14" value="Git Admin" style="shape=umlActor;verticalLabelPosition=bottom;verticalAlign=top;html=1;outlineConnect=0;sketch=1;jiggle=2;curveFitting=1;strokeColor=default;align=center;fontFamily=Gloria Hallelujah;fontSource=https%3A%2F%2Ffonts.googleapis.com%2Fcss%3Ffamily%3DGloria%2BHallelujah;fontSize=14;fontColor=default;labelBackgroundColor=default;fillColor=default;rotation=15;" vertex="1" parent="1">
          <mxGeometry x="695" y="20" width="30" height="60" as="geometry" />
        </mxCell>
        <mxCell id="gZAkS-AGusxoyFhxjlCA-15" style="edgeStyle=orthogonalEdgeStyle;shape=connector;curved=1;rounded=0;orthogonalLoop=1;jettySize=auto;html=1;exitX=0.875;exitY=0.5;exitDx=0;exitDy=0;exitPerimeter=0;entryX=0;entryY=0.5;entryDx=0;entryDy=0;entryPerimeter=0;dashed=1;dashPattern=1 1;strokeColor=#FF00FF;strokeWidth=2;align=center;verticalAlign=middle;fontFamily=Gloria Hallelujah;fontSource=https%3A%2F%2Ffonts.googleapis.com%2Fcss%3Ffamily%3DGloria%2BHallelujah;fontSize=14;fontColor=default;labelBackgroundColor=default;endArrow=classic;flowAnimation=1;" edge="1" parent="1" source="gZAkS-AGusxoyFhxjlCA-1" target="gZAkS-AGusxoyFhxjlCA-4">
          <mxGeometry relative="1" as="geometry">
            <mxPoint x="482" y="183" as="sourcePoint" />
            <mxPoint x="612" y="124" as="targetPoint" />
          </mxGeometry>
        </mxCell>
        <mxCell id="gZAkS-AGusxoyFhxjlCA-17" value="Network&lt;div style=&quot;font-size: 14px;&quot;&gt;Proxy&lt;br style=&quot;font-size: 14px;&quot;&gt;Transporter&lt;/div&gt;" style="rounded=1;whiteSpace=wrap;html=1;sketch=1;jiggle=2;curveFitting=1;strokeColor=#d79b00;align=center;verticalAlign=middle;fontFamily=Gloria Hallelujah;fontSource=https%3A%2F%2Ffonts.googleapis.com%2Fcss%3Ffamily%3DGloria%2BHallelujah;fontSize=14;labelBackgroundColor=none;fillColor=#ffcd28;gradientColor=#ffa500;fontColor=#000000;" vertex="1" parent="1">
          <mxGeometry x="505" y="278.75" width="105" height="60" as="geometry" />
        </mxCell>
        <mxCell id="gZAkS-AGusxoyFhxjlCA-18" style="edgeStyle=orthogonalEdgeStyle;shape=connector;curved=1;rounded=0;orthogonalLoop=1;jettySize=auto;html=1;exitX=1;exitY=0.5;exitDx=0;exitDy=0;entryX=0.5;entryY=1;entryDx=0;entryDy=0;entryPerimeter=0;dashed=1;dashPattern=1 1;strokeColor=#00FFFF;strokeWidth=2;align=center;verticalAlign=middle;fontFamily=Gloria Hallelujah;fontSource=https%3A%2F%2Ffonts.googleapis.com%2Fcss%3Ffamily%3DGloria%2BHallelujah;fontSize=14;fontColor=default;labelBackgroundColor=default;endArrow=classic;flowAnimation=1;" edge="1" parent="1" source="gZAkS-AGusxoyFhxjlCA-17" target="gZAkS-AGusxoyFhxjlCA-4">
          <mxGeometry relative="1" as="geometry" />
        </mxCell>
        <mxCell id="gZAkS-AGusxoyFhxjlCA-20" style="edgeStyle=orthogonalEdgeStyle;shape=connector;curved=1;rounded=0;orthogonalLoop=1;jettySize=auto;html=1;entryX=0.796;entryY=0.837;entryDx=0;entryDy=0;entryPerimeter=0;dashed=1;dashPattern=1 1;strokeColor=#00FFFF;strokeWidth=2;align=center;verticalAlign=middle;fontFamily=Gloria Hallelujah;fontSource=https%3A%2F%2Ffonts.googleapis.com%2Fcss%3Ffamily%3DGloria%2BHallelujah;fontSize=14;fontColor=default;labelBackgroundColor=default;endArrow=classic;flowAnimation=1;" edge="1" parent="1" source="gZAkS-AGusxoyFhxjlCA-17" target="gZAkS-AGusxoyFhxjlCA-1">
          <mxGeometry relative="1" as="geometry" />
        </mxCell>
        <mxCell id="gZAkS-AGusxoyFhxjlCA-28" style="edgeStyle=orthogonalEdgeStyle;shape=connector;curved=1;rounded=0;orthogonalLoop=1;jettySize=auto;html=1;exitX=0.5;exitY=1;exitDx=0;exitDy=0;entryX=1;entryY=0.5;entryDx=0;entryDy=0;dashed=1;dashPattern=1 1;strokeColor=#FFFF00;strokeWidth=2;align=center;verticalAlign=middle;fontFamily=Gloria Hallelujah;fontSource=https%3A%2F%2Ffonts.googleapis.com%2Fcss%3Ffamily%3DGloria%2BHallelujah;fontSize=14;fontColor=default;labelBackgroundColor=default;endArrow=classic;flowAnimation=1;" edge="1" parent="1" source="gZAkS-AGusxoyFhxjlCA-23" target="gZAkS-AGusxoyFhxjlCA-27">
          <mxGeometry relative="1" as="geometry" />
        </mxCell>
        <mxCell id="gZAkS-AGusxoyFhxjlCA-23" value="&lt;u&gt;CI Pipeline&lt;br&gt;&lt;/u&gt;GIt Checkout&lt;div style=&quot;font-size: 14px;&quot;&gt;Checkov Scan&lt;/div&gt;" style="shape=process;whiteSpace=wrap;html=1;backgroundOutline=1;sketch=1;jiggle=2;curveFitting=1;strokeColor=default;align=center;verticalAlign=middle;fontFamily=Gloria Hallelujah;fontSource=https%3A%2F%2Ffonts.googleapis.com%2Fcss%3Ffamily%3DGloria%2BHallelujah;fontSize=14;fontColor=default;labelBackgroundColor=default;fillColor=default;" vertex="1" parent="1">
          <mxGeometry x="650" y="341.25" width="140" height="60" as="geometry" />
        </mxCell>
        <mxCell id="gZAkS-AGusxoyFhxjlCA-27" value="K8s runner" style="rounded=1;whiteSpace=wrap;html=1;sketch=1;jiggle=2;curveFitting=1;strokeColor=#6c8ebf;align=center;verticalAlign=middle;fontFamily=Gloria Hallelujah;fontSource=https%3A%2F%2Ffonts.googleapis.com%2Fcss%3Ffamily%3DGloria%2BHallelujah;fontSize=14;labelBackgroundColor=none;fillColor=#dae8fc;gradientColor=#7ea6e0;fontColor=#000000;" vertex="1" parent="1">
          <mxGeometry x="510" y="410" width="100" height="50" as="geometry" />
        </mxCell>
        <mxCell id="gZAkS-AGusxoyFhxjlCA-29" value="&lt;br style=&quot;font-size: 14px;&quot;&gt;&lt;u style=&quot;font-size: 14px;&quot;&gt;Integration Approaches&lt;br style=&quot;font-size: 14px;&quot;&gt;&lt;/u&gt;(1) Python&lt;br style=&quot;font-size: 14px;&quot;&gt;pip install&lt;br style=&quot;font-size: 14px;&quot;&gt;&lt;br style=&quot;font-size: 14px;&quot;&gt;(2)checkov image" style="text;html=1;align=left;verticalAlign=middle;whiteSpace=wrap;rounded=0;fontFamily=Gloria Hallelujah;fontSource=https%3A%2F%2Ffonts.googleapis.com%2Fcss%3Ffamily%3DGloria%2BHallelujah;fontSize=14;fontColor=default;labelBackgroundColor=default;" vertex="1" parent="1">
          <mxGeometry x="815" y="370" width="150" height="50" as="geometry" />
        </mxCell>
        <mxCell id="gZAkS-AGusxoyFhxjlCA-30" value="Download corresponding policy&lt;br style=&quot;font-size: 14px;&quot;&gt;Upload scanning result" style="edgeStyle=orthogonalEdgeStyle;shape=connector;curved=1;rounded=0;orthogonalLoop=1;jettySize=auto;html=1;exitX=0;exitY=0.5;exitDx=0;exitDy=0;entryX=0.533;entryY=0.952;entryDx=0;entryDy=0;entryPerimeter=0;dashed=1;dashPattern=1 1;strokeColor=#FFFF00;strokeWidth=2;align=center;verticalAlign=middle;fontFamily=Gloria Hallelujah;fontSource=https%3A%2F%2Ffonts.googleapis.com%2Fcss%3Ffamily%3DGloria%2BHallelujah;fontSize=14;fontColor=default;labelBackgroundColor=default;endArrow=classic;flowAnimation=1;" edge="1" parent="1" source="gZAkS-AGusxoyFhxjlCA-27" target="gZAkS-AGusxoyFhxjlCA-1">
          <mxGeometry x="0.1715" y="-6" relative="1" as="geometry">
            <mxPoint as="offset" />
          </mxGeometry>
        </mxCell>
        <mxCell id="gZAkS-AGusxoyFhxjlCA-21" value="2" style="ellipse;whiteSpace=wrap;html=1;aspect=fixed;sketch=1;jiggle=2;curveFitting=1;strokeColor=#666666;align=center;verticalAlign=middle;fontFamily=Gloria Hallelujah;fontSource=https%3A%2F%2Ffonts.googleapis.com%2Fcss%3Ffamily%3DGloria%2BHallelujah;fontSize=14;fillColor=#f5f5f5;gradientColor=#b3b3b3;fontColor=#000000;fontStyle=1" vertex="1" parent="1">
          <mxGeometry x="760" y="301.25" width="45" height="45" as="geometry" />
        </mxCell>
        <mxCell id="gZAkS-AGusxoyFhxjlCA-22" value="CI/CD Pipeline Scanning&lt;div style=&quot;font-size: 14px;&quot;&gt;CI Plugin, Python CLI&lt;/div&gt;" style="text;html=1;align=center;verticalAlign=middle;whiteSpace=wrap;rounded=0;fontFamily=Gloria Hallelujah;fontSource=https%3A%2F%2Ffonts.googleapis.com%2Fcss%3Ffamily%3DGloria%2BHallelujah;fontSize=14;fontColor=default;" vertex="1" parent="1">
          <mxGeometry x="802.5" y="308.75" width="177.5" height="30" as="geometry" />
        </mxCell>
        <mxCell id="gZAkS-AGusxoyFhxjlCA-31" value="" style="shape=curlyBracket;whiteSpace=wrap;html=1;rounded=1;flipH=1;labelPosition=right;verticalLabelPosition=middle;align=left;verticalAlign=middle;sketch=1;jiggle=2;curveFitting=1;strokeColor=default;fontFamily=Gloria Hallelujah;fontSource=https%3A%2F%2Ffonts.googleapis.com%2Fcss%3Ffamily%3DGloria%2BHallelujah;fontSize=14;fontColor=default;labelBackgroundColor=default;fillColor=default;" vertex="1" parent="1">
          <mxGeometry x="740" y="27.5" width="20" height="262.5" as="geometry" />
        </mxCell>
        <mxCell id="gZAkS-AGusxoyFhxjlCA-5" value="1" style="ellipse;whiteSpace=wrap;html=1;aspect=fixed;sketch=1;jiggle=2;curveFitting=1;strokeColor=#666666;align=center;verticalAlign=middle;fontFamily=Gloria Hallelujah;fontSource=https%3A%2F%2Ffonts.googleapis.com%2Fcss%3Ffamily%3DGloria%2BHallelujah;fontSize=14;fillColor=#f5f5f5;gradientColor=#b3b3b3;fontColor=#000000;fontStyle=1" vertex="1" parent="1">
          <mxGeometry x="770" y="105" width="45" height="45" as="geometry" />
        </mxCell>
        <mxCell id="gZAkS-AGusxoyFhxjlCA-32" value="Workloads&lt;div style=&quot;font-size: 14px;&quot;&gt;Protected&lt;/div&gt;&lt;div style=&quot;font-size: 14px;&quot;&gt;by CWP&lt;/div&gt;" style="shape=cube;whiteSpace=wrap;html=1;boundedLbl=1;backgroundOutline=1;darkOpacity=0.05;darkOpacity2=0.1;sketch=1;jiggle=2;curveFitting=1;strokeColor=default;align=center;verticalAlign=middle;fontFamily=Gloria Hallelujah;fontSource=https%3A%2F%2Ffonts.googleapis.com%2Fcss%3Ffamily%3DGloria%2BHallelujah;fontSize=14;fontColor=default;labelBackgroundColor=default;fillColor=default;" vertex="1" parent="1">
          <mxGeometry x="127.5" y="75" width="120" height="80" as="geometry" />
        </mxCell>
        <mxCell id="gZAkS-AGusxoyFhxjlCA-33" style="edgeStyle=orthogonalEdgeStyle;shape=connector;curved=1;rounded=0;orthogonalLoop=1;jettySize=auto;html=1;entryX=0.07;entryY=0.4;entryDx=0;entryDy=0;entryPerimeter=0;dashed=1;dashPattern=1 1;strokeColor=#00FF00;strokeWidth=2;align=center;verticalAlign=middle;fontFamily=Gloria Hallelujah;fontSource=https%3A%2F%2Ffonts.googleapis.com%2Fcss%3Ffamily%3DGloria%2BHallelujah;fontSize=14;fontColor=default;labelBackgroundColor=default;endArrow=classic;flowAnimation=1;exitX=0;exitY=0;exitDx=70;exitDy=80;exitPerimeter=0;" edge="1" parent="1" source="gZAkS-AGusxoyFhxjlCA-32" target="gZAkS-AGusxoyFhxjlCA-1">
          <mxGeometry relative="1" as="geometry" />
        </mxCell>
      </root>
    </mxGraphModel>
  </diagram>
</mxfile>
